<svg xmlns="http://www.w3.org/2000/svg" xmlns:xlink="http://www.w3.org/1999/xlink" id="Layer_1" width="200" height="200" x="0" y="0" enable-background="new 0 0 200 200" version="1.1" viewBox="0 0 200 200" xml:space="preserve"><title>Asset 9</title><g id="Layer_2"><g id="Layer_1-2"><path fill="#FFF" d="M175,200H25c-13.807,0-25-11.193-25-25V25C0,11.193,11.193,0,25,0h150c13.807,0,25,11.193,25,25v150 C200,188.807,188.807,200,175,200z M25,16.656c-4.601,0.017-8.327,3.743-8.344,8.344v150c0.017,4.602,3.743,8.326,8.344,8.344h150 c4.602-0.018,8.326-3.742,8.344-8.344V25c-0.018-4.601-3.742-8.327-8.344-8.344H25z"/></g></g><rect width="68.473" height="120.96" x="45.5" y="42.244" fill="#FFF"/><rect width="88.473" height="15.39" x="68.027" y="66.529" fill="#D1E7F2"/><rect width="88.473" height="15.39" x="68.027" y="96.529" fill="#D1E7F2"/><rect width="88.473" height="15.39" x="68.027" y="123.529" fill="#D1E7F2"/></svg>