<svg xmlns="http://www.w3.org/2000/svg" xmlns:xlink="http://www.w3.org/1999/xlink" id="Layer_1" width="200" height="200" x="0" y="0" enable-background="new 0 0 200 200" version="1.1" viewBox="0 0 200 200" xml:space="preserve"><title>Asset 57</title><path fill="#FFF" d="M175,0H25C11.193,0,0,11.193,0,25v150c0,13.807,11.193,25,25,25h150c13.807,0,25-11.193,25-25V25	C200,11.193,188.807,0,175,0z M183.344,175c-0.018,4.602-3.742,8.326-8.344,8.344H25c-4.601-0.018-8.327-3.742-8.344-8.344V25	c0.017-4.601,3.743-8.327,8.344-8.344h150c4.602,0.017,8.326,3.743,8.344,8.344V175z"/><circle cx="52.5" cy="150.5" r="16" fill="#FFF"/><circle cx="99.5" cy="150.5" r="16" fill="#FFF"/><circle cx="148.5" cy="150.5" r="16" fill="#FFF"/></svg>