<svg xmlns="http://www.w3.org/2000/svg" xmlns:xlink="http://www.w3.org/1999/xlink" id="Слой_1" width="32" height="32" x="0" y="0" enable-background="new 0 0 32 32" version="1.1" viewBox="0 0 32 32" xml:space="preserve"><path id="Arrow_Back" fill="#FFF" d="M4.67,23.751h22.892l-6.849,6.822c-0.321,0.322-0.321,0.841,0,1.163	c0.322,0.321,0.843,0.321,1.163,0l8.145-8.144c0.316-0.316,0.316-0.847,0-1.162l-8.145-8.145c-0.321-0.322-0.843-0.322-1.163,0	c-0.321,0.322-0.321,0.842,0,1.163l6.849,6.658H4.67c-0.456,0-0.823,0.367-0.823,0.822C3.847,23.382,4.216,23.751,4.67,23.751z"/><path id="Arrow_Back_1_" fill="#FFF" d="M26.436,8.049H3.544l6.849-6.822c0.321-0.322,0.321-0.841,0-1.163	c-0.322-0.321-0.843-0.321-1.164,0L1.085,8.208c-0.317,0.317-0.317,0.847,0,1.162l8.144,8.145c0.321,0.321,0.843,0.321,1.164,0	c0.321-0.321,0.321-0.842,0-1.163L3.544,9.695h22.893c0.456,0,0.822-0.369,0.822-0.823C27.259,8.418,26.891,8.049,26.436,8.049z"/></svg>