<svg xmlns="http://www.w3.org/2000/svg" xmlns:xlink="http://www.w3.org/1999/xlink" id="Layer_1" width="200" height="200" x="0" y="0" enable-background="new 0 0 200 200" version="1.1" viewBox="0 0 200 200" xml:space="preserve"><g><path fill="#FFF" d="M141.314,109.953c-4.329,0-7.84,3.512-7.84,7.841c0,4.327,3.511,7.84,7.84,7.84h20.906 c4.329,0,7.84-3.513,7.84-7.84c0-4.329-3.511-7.841-7.84-7.841H141.314z M172.674,34.166c0-15.874-12.862-28.747-28.746-28.747 H26.326c-12.99,0-23.52,10.53-23.52,23.52c0,0.556,0.02,1.113,0.056,1.659c-0.036,0.312-0.056,0.633-0.056,0.955v128.054 c0,18.764,15.21,33.975,33.974,33.975h130.667c15.885,0,28.747-12.873,28.747-28.747V65.526c0-14.093-10.137-25.817-23.521-28.272 V34.166z M18.486,28.939c0-4.329,3.511-7.84,7.839-7.84h117.602c7.217,0,13.066,5.849,13.066,13.066v2.613H26.326 C21.998,36.779,18.486,33.267,18.486,28.939z M26.326,52.459h141.122c7.218,0,13.067,5.849,13.067,13.067v99.308 c0,7.217-5.85,13.066-13.067,13.066H36.78c-10.102,0-18.293-8.188-18.293-18.294V51.122C20.936,51.99,23.574,52.459,26.326,52.459z"/></g></svg>